# xmcd
#
# Track frame offsets:
#	150
#	14937
#	33519
#	51501
#	71295
#	88903
#	103501
#	118225
#	132120
#	144414
#	158589
#	176749
#	191250
#	205300
#	223631
#
# Disc length: 3189 seconds
#
# Revision: 1
# Processed by: cddbd v1.5.2PL0 Copyright (c) Steve Scherf et al.
# Submitted via: audiograbber 1.83.01
#
DISCID=de0c730f
DTITLE=Moonshine Bandits - Calicounty
DYEAR=2014
DGENRE=Country
TTITLE0=The Moon Shines (Feat. Jeremy Penick)
TTITLE1=Throwdown (Feat. The Lacs)
TTITLE2=Burn (ft. Big B
TTITLE3=We All Country (Feat. Colt Ford, Sarah Ross)
TTITLE4=On The Run (Feat. Durwood Black)
TTITLE5=Raise Some Hell
TTITLE6=What She Does to Me
TTITLE7=Feel No Pain (Feat. Danny Boone)
TTITLE8=On My Way
TTITLE9=Much Better
TTITLE10=Wrong Side of the Street (Feat Durwood Black)
TTITLE11=86
TTITLE12=California Country
TTITLE13=Arrest Me
TTITLE14=Bar Stool
EXTD=
EXTT0=
EXTT1=
EXTT2=
EXTT3=
EXTT4=
EXTT5=
EXTT6=
EXTT7=
EXTT8=
EXTT9=
EXTT10=
EXTT11=
EXTT12=
EXTT13=
EXTT14=
PLAYORDER=
